<mxfile host="app.diagrams.net" modified="2021-04-27T14:18:53.786Z" agent="5.0 (X11; Linux x86_64) AppleWebKit/537.36 (KHTML, like Gecko) Chrome/90.0.4430.93 Safari/537.36" etag="iozhbd8z8Oz_5MRfnN2N" version="14.6.6" type="github">
  <diagram id="MZNEbvOIKQ0AGte8CoT8" name="Page-1">
    <mxGraphModel dx="1662" dy="833" grid="1" gridSize="10" guides="1" tooltips="1" connect="1" arrows="1" fold="1" page="1" pageScale="1" pageWidth="850" pageHeight="1100" math="0" shadow="0">
      <root>
        <mxCell id="0" />
        <mxCell id="1" parent="0" />
        <UserObject label="Vision Application &lt;br&gt;(Front-End)" lucidchartObjectId="5R8w1v7GXrrg" id="aYf_v_CRqeFnfuspDE_A-2">
          <mxCell style="html=1;overflow=block;blockSpacing=1;whiteSpace=wrap;;whiteSpace=wrap;fontSize=16.3;fontColor=#000000;spacing=9;strokeColor=#5e5e5e;strokeOpacity=100;rounded=1;absoluteArcSize=1;arcSize=9;strokeWidth=2.3;" parent="1" vertex="1">
            <mxGeometry x="555" y="405" width="210" height="90" as="geometry" />
          </mxCell>
        </UserObject>
        <UserObject label="Vision Server&lt;br&gt;(Back-End)" lucidchartObjectId="8R8w7S97WI4X" id="aYf_v_CRqeFnfuspDE_A-3">
          <mxCell style="html=1;overflow=block;blockSpacing=1;whiteSpace=wrap;;whiteSpace=wrap;fontSize=16.7;fontColor=#333333;spacing=9;strokeColor=#5e5e5e;strokeOpacity=100;rounded=1;absoluteArcSize=1;arcSize=9;strokeWidth=2.3;" parent="1" vertex="1">
            <mxGeometry x="900" y="135" width="210" height="90" as="geometry" />
          </mxCell>
        </UserObject>
        <UserObject label="" lucidchartObjectId="_T8w7Vj5lxH~" id="aYf_v_CRqeFnfuspDE_A-4">
          <mxCell style="html=1;jettySize=18;whiteSpace=wrap;fontSize=13;strokeColor=#5E5E5E;strokeWidth=1.5;rounded=0;startArrow=none;;endArrow=none;;exitX=1;exitY=1;exitPerimeter=0;entryX=0.008;entryY=-0.005;entryPerimeter=0;exitDx=0;exitDy=0;" parent="1" source="QxxGrKox1YzJSJFWt_CB-1" target="aYf_v_CRqeFnfuspDE_A-2" edge="1">
            <mxGeometry width="100" height="100" relative="1" as="geometry">
              <Array as="points" />
              <mxPoint x="418.32000000000016" y="225.45000000000005" as="sourcePoint" />
            </mxGeometry>
          </mxCell>
        </UserObject>
        <UserObject label="" lucidchartObjectId="BU8wseWpq0h8" id="aYf_v_CRqeFnfuspDE_A-5">
          <mxCell style="html=1;jettySize=18;whiteSpace=wrap;fontSize=13;strokeColor=#5E5E5E;strokeWidth=1.5;rounded=0;startArrow=none;;endArrow=none;;exitX=0.5;exitY=1.013;exitPerimeter=0;entryX=1.005;entryY=0.509;entryPerimeter=0;" parent="1" source="aYf_v_CRqeFnfuspDE_A-3" target="aYf_v_CRqeFnfuspDE_A-2" edge="1">
            <mxGeometry width="100" height="100" relative="1" as="geometry">
              <Array as="points" />
            </mxGeometry>
          </mxCell>
        </UserObject>
        <UserObject label="" lucidchartObjectId="jW8wIVGWzWUJ" id="aYf_v_CRqeFnfuspDE_A-6">
          <mxCell style="html=1;jettySize=18;whiteSpace=wrap;fontSize=13;strokeColor=#5E5E5E;strokeWidth=3;rounded=0;startArrow=none;;endArrow=block;endFill=1;;" parent="1" edge="1">
            <mxGeometry width="100" height="100" relative="1" as="geometry">
              <Array as="points" />
              <mxPoint x="440" y="270" as="sourcePoint" />
              <mxPoint x="570" y="390" as="targetPoint" />
            </mxGeometry>
          </mxCell>
        </UserObject>
        <mxCell id="QxxGrKox1YzJSJFWt_CB-2" value="&lt;font style=&quot;font-size: 14px&quot;&gt;uploadMedia()&lt;/font&gt;" style="edgeLabel;html=1;align=center;verticalAlign=middle;resizable=0;points=[];rotation=45;" vertex="1" connectable="0" parent="aYf_v_CRqeFnfuspDE_A-6">
          <mxGeometry x="-0.1137" y="-4" relative="1" as="geometry">
            <mxPoint x="30" y="-6" as="offset" />
          </mxGeometry>
        </mxCell>
        <UserObject label="" lucidchartObjectId="fu9wNH_-79x." id="aYf_v_CRqeFnfuspDE_A-9">
          <mxCell style="html=1;jettySize=18;whiteSpace=wrap;fontSize=13;strokeColor=#5E5E5E;strokeWidth=3;rounded=0;startArrow=none;;endArrow=block;endFill=1;;" parent="1" edge="1">
            <mxGeometry width="100" height="100" relative="1" as="geometry">
              <Array as="points" />
              <mxPoint x="780" y="410" as="sourcePoint" />
              <mxPoint x="940" y="260" as="targetPoint" />
            </mxGeometry>
          </mxCell>
        </UserObject>
        <UserObject label="&lt;font style=&quot;font-size: 14px&quot;&gt;uploadMediaToServer()&lt;/font&gt;" lucidchartObjectId="3u9wlox8CNqw" id="aYf_v_CRqeFnfuspDE_A-10">
          <mxCell style="html=1;overflow=block;blockSpacing=1;whiteSpace=wrap;;whiteSpace=wrap;fontSize=13.3;fontColor=#333333;spacing=3.8;strokeOpacity=0;fillOpacity=0;rounded=1;absoluteArcSize=1;arcSize=9;fillColor=#ffffff;strokeWidth=3;rotation=-45;" parent="1" vertex="1">
            <mxGeometry x="750" y="305.5" width="170" height="33" as="geometry" />
          </mxCell>
        </UserObject>
        <UserObject label="" lucidchartObjectId="GA9w_wXhENTy" id="aYf_v_CRqeFnfuspDE_A-14">
          <mxCell style="html=1;jettySize=18;whiteSpace=wrap;fontSize=13;strokeColor=#5E5E5E;strokeWidth=3;rounded=0;startArrow=none;;endArrow=block;endFill=1;;" parent="1" edge="1">
            <mxGeometry width="100" height="100" relative="1" as="geometry">
              <Array as="points" />
              <mxPoint x="967" y="288" as="sourcePoint" />
              <mxPoint x="800" y="440" as="targetPoint" />
            </mxGeometry>
          </mxCell>
        </UserObject>
        <UserObject label="&lt;font style=&quot;font-size: 14px&quot;&gt;sendMediaResult()&lt;/font&gt;" lucidchartObjectId="GA9wi2BClNW." id="aYf_v_CRqeFnfuspDE_A-15">
          <mxCell style="html=1;overflow=block;blockSpacing=1;whiteSpace=wrap;;whiteSpace=wrap;fontSize=13.3;fontColor=#333333;spacing=3.8;strokeOpacity=0;fillOpacity=0;rounded=1;absoluteArcSize=1;arcSize=9;fillColor=#ffffff;strokeWidth=3;rotation=-45;" parent="1" vertex="1">
            <mxGeometry x="830" y="370" width="180" height="48" as="geometry" />
          </mxCell>
        </UserObject>
        <UserObject label="" lucidchartObjectId="CC9wUjE_Lyn-" id="aYf_v_CRqeFnfuspDE_A-16">
          <mxCell style="html=1;jettySize=18;whiteSpace=wrap;fontSize=13;strokeColor=#5E5E5E;strokeWidth=3;rounded=0;startArrow=none;;endArrow=block;endFill=1;;" parent="1" edge="1">
            <mxGeometry width="100" height="100" relative="1" as="geometry">
              <Array as="points" />
              <mxPoint x="540" y="410" as="sourcePoint" />
              <mxPoint x="405" y="285" as="targetPoint" />
            </mxGeometry>
          </mxCell>
        </UserObject>
        <mxCell id="QxxGrKox1YzJSJFWt_CB-3" value="&lt;font style=&quot;font-size: 14px&quot;&gt;downloadEnhancedMedia()&lt;/font&gt;" style="edgeLabel;html=1;align=center;verticalAlign=middle;resizable=0;points=[];rotation=45;" vertex="1" connectable="0" parent="aYf_v_CRqeFnfuspDE_A-16">
          <mxGeometry x="0.1607" y="-2" relative="1" as="geometry">
            <mxPoint x="-3" y="34" as="offset" />
          </mxGeometry>
        </mxCell>
        <mxCell id="QxxGrKox1YzJSJFWt_CB-1" value="Actor" style="shape=umlActor;verticalLabelPosition=bottom;verticalAlign=top;html=1;outlineConnect=0;" vertex="1" parent="1">
          <mxGeometry x="320" y="130" width="50" height="100" as="geometry" />
        </mxCell>
      </root>
    </mxGraphModel>
  </diagram>
</mxfile>
